HIERARCHY
ROOT Bip001_Pelvis
{
  OFFSET 2.11667 93.5892 -0.791448
  CHANNELS 6 Xposition Yposition Zposition Zrotation Xrotation Yrotation
  JOINT Bip001_Spine
  {
    OFFSET 1.44608e-005 10.4157 -0.0118244
    CHANNELS 3 Zrotation Xrotation Yrotation
    JOINT Bip001_L_Thigh
    {
      OFFSET 11.2582 -10.4157 0.0118432
      CHANNELS 3 Zrotation Xrotation Yrotation
      JOINT Bip001_L_Calf
      {
        OFFSET -0.720717 -44.8687 0.366937
        CHANNELS 3 Zrotation Xrotation Yrotation
        JOINT Bip001_L_Foot
        {
          OFFSET -0.664439 -41.3745 -3.62995
          CHANNELS 3 Zrotation Xrotation Yrotation
          JOINT Bip001_L_Toe0
          {
            OFFSET 0.0541048 -10.4146 13.4033
            CHANNELS 3 Zrotation Xrotation Yrotation
            End Site
            {
              OFFSET -1.04503e-005 0 7.70137
            }
          }
        }
      }
    }
    JOINT Bip001_R_Thigh
    {
      OFFSET -11.2582 -10.4156 0.0118122
      CHANNELS 3 Zrotation Xrotation Yrotation
      JOINT Bip001_R_Calf
      {
        OFFSET 0.72059 -44.8687 0.36676
        CHANNELS 3 Zrotation Xrotation Yrotation
        JOINT Bip001_R_Foot
        {
          OFFSET 0.664321 -41.3745 -3.62979
          CHANNELS 3 Zrotation Xrotation Yrotation
          JOINT Bip001_R_Toe0
          {
            OFFSET -0.05417 -10.4146 13.4033
            CHANNELS 3 Zrotation Xrotation Yrotation
            End Site
            {
              OFFSET -1.04873e-005 0 7.70137
            }
          }
        }
      }
    }
    JOINT Bip001_Spine1
    {
      OFFSET 1.90638e-005 14.8539 1.10727
      CHANNELS 3 Zrotation Xrotation Yrotation
      JOINT Bip001_Spine2
      {
        OFFSET 2.28934e-005 14.7848 -1.7233
        CHANNELS 3 Zrotation Xrotation Yrotation
        JOINT Bip001_Neck
        {
          OFFSET 2.24514e-005 15.6905 -0.498826
          CHANNELS 3 Zrotation Xrotation Yrotation
          JOINT Bip001_L_Clavicle
          {
            OFFSET 6.17691 -0.000591152 0.00852867
            CHANNELS 3 Zrotation Xrotation Yrotation
            JOINT Bip001_L_UpperArm
            {
              OFFSET 11.773 -0.0611878 0.00197697
              CHANNELS 3 Zrotation Xrotation Yrotation
              JOINT Bip001_L_Forearm
              {
                OFFSET 26.4515 0.0817567 -2.1958
                CHANNELS 3 Zrotation Xrotation Yrotation
                JOINT Bip001_L_Hand
                {
                  OFFSET 32.8677 0.156744 1.67112
                  CHANNELS 3 Zrotation Xrotation Yrotation
                  JOINT Bip001_L_Finger0
                  {
                    OFFSET 6.16267 -2.25228 6.01669
                    CHANNELS 3 Zrotation Xrotation Yrotation
                    End Site
                    {
                      OFFSET 4.30498 -1.46664 0.618143
                    }
                  }
                  JOINT Bip001_L_Finger1
                  {
                    OFFSET 11.2957 -0.71838 -0.201961
                    CHANNELS 3 Zrotation Xrotation Yrotation
                    End Site
                    {
                      OFFSET 6.31952 -0.405166 -0.0802296
                    }
                  }
                }
              }
            }
          }
          JOINT Bip001_R_Clavicle
          {
            OFFSET -6.17691 -0.000574027 0.00851165
            CHANNELS 3 Zrotation Xrotation Yrotation
            JOINT Bip001_R_UpperArm
            {
              OFFSET -11.773 -0.0611516 0.00194365
              CHANNELS 3 Zrotation Xrotation Yrotation
              JOINT Bip001_R_Forearm
              {
                OFFSET -26.4514 0.0822335 -2.19736
                CHANNELS 3 Zrotation Xrotation Yrotation
                JOINT Bip001_R_Hand
                {
                  OFFSET -32.8677 0.156816 1.67144
                  CHANNELS 3 Zrotation Xrotation Yrotation
                  JOINT Bip001_R_Finger0
                  {
                    OFFSET -6.16269 -2.25224 6.01673
                    CHANNELS 3 Zrotation Xrotation Yrotation
                    End Site
                    {
                      OFFSET -4.30499 -1.46661 0.618137
                    }
                  }
                  JOINT Bip001_R_Finger1
                  {
                    OFFSET -11.2957 -0.718342 -0.201995
                    CHANNELS 3 Zrotation Xrotation Yrotation
                    End Site
                    {
                      OFFSET -6.31951 -0.405145 -0.080248
                    }
                  }
                }
              }
            }
          }
          JOINT Bip001_Head
          {
            OFFSET 1.11782e-005 11.4912 2.09908
            CHANNELS 3 Zrotation Xrotation Yrotation
            End Site
            {
              OFFSET 2.95144e-005 21.2823 -2.83069e-005
            }
          }
        }
      }
    }
  }
}
MOTION
Frames:	9
Frame Time:	0.0333333
2.18989 93.6164 -0.691923 1.1339 -5.08495 3.88453 0.250447 0.804504 0.548461 -4.43471 4.9089 1.08765 0.00942673 10.9876 -0.201776 -5.9614 5.11219 -19.3465 -1.67037e-006 -1.14194e-006 5.28054e-007 -2.7421 -10.3175 -2.508 -0.0565153 28.1722 0.449781 1.99875 -9.21462 1.31308 9.93921e-017 -1.59028e-015 -3.97569e-016 0.500276 1.62157 1.09186 0.501177 1.60098 1.08731 -0.537484 -2.26755 0.237165 -22.3901 0.585516 9.74309 -42.1547 36.8009 -29.1219 -0.411383 0.0341141 -4.29917 -4.56867 41.7395 -8.14704 3.18055e-015 3.18055e-015 -0 -8.82782e-032 3.18056e-015 1.59028e-015 10.2787 -0.456556 -19.8563 61.0706 44.4871 21.792 0.275245 0.0234326 2.45781 -7.85178 10.6807 9.51987 0 3.18055e-015 -0 3.18055e-015 0 -0 -5.14671 7.56893 1.55972 
2.18637 93.6165 -0.687941 1.1339 -5.08495 3.88453 0.250447 0.804504 0.548461 -4.43471 4.9089 1.08765 0.00942673 10.9876 -0.201776 -5.9614 5.11219 -19.3465 -1.67037e-006 -1.14194e-006 5.28054e-007 -2.7421 -10.3175 -2.508 -0.0565153 28.1722 0.449781 1.99875 -9.21462 1.31308 9.93921e-017 -1.59028e-015 -3.97569e-016 0.500276 1.62157 1.09186 0.501177 1.60098 1.08731 -0.587785 -2.26755 0.237165 -22.3901 0.585523 9.73896 -42.1296 36.8368 -29.1369 -0.411383 0.0341141 -4.29917 -4.56867 41.7395 -8.14704 -4.41391e-032 -3.18055e-015 -7.95139e-016 3.18055e-015 -1.59028e-015 -1.59028e-015 10.2911 -0.456556 -19.8563 61.1163 44.4376 21.7677 0.275245 0.0234326 2.45781 -7.8591 10.7235 9.52123 -3.18055e-015 -6.36111e-015 -0 -6.36111e-015 -3.18056e-015 -6.36111e-015 -5.10877 7.54734 1.53163 
2.18265 93.6167 -0.684028 1.1339 -5.08495 3.88453 0.250447 0.804504 0.548461 -4.43471 4.9089 1.08765 0.00942673 10.9876 -0.201776 -5.9617 5.11186 -19.3465 -1.67037e-006 -1.14194e-006 5.28054e-007 -2.7421 -10.3175 -2.508 -0.0565153 28.1722 0.449781 1.99875 -9.21462 1.31308 9.93921e-017 -1.59028e-015 -3.97569e-016 0.500276 1.62157 1.09186 0.501177 1.60098 1.08731 -0.629654 -2.25818 0.236116 -22.3855 0.576051 9.7351 -42.1176 36.8513 -29.143 -0.411383 0.0341141 -4.29917 -4.56867 41.7395 -8.14704 -6.36111e-015 -1.59028e-015 -0 -3.18055e-015 -4.77083e-015 -0 10.3101 -0.465435 -19.8564 61.1604 44.4154 21.7414 0.275245 0.0234326 2.45781 -7.8634 10.7487 9.52203 3.18055e-015 -9.54166e-015 -6.36111e-015 -5.29669e-031 -9.54167e-015 -3.18055e-015 -5.07295 7.52363 1.50525 
2.17817 93.6168 -0.680598 1.13668 -5.08487 3.89683 0.250447 0.804504 0.548461 -4.43471 4.9089 1.08765 0.00942673 10.9876 -0.201776 -5.96127 5.11161 -19.3544 -1.67037e-006 -1.14194e-006 5.28054e-007 -2.74205 -10.3162 -2.50799 -0.0565153 28.1722 0.449781 1.99835 -9.21463 1.3106 0 0 -3.97569e-016 0.500276 1.62157 1.09186 0.501177 1.60098 1.08731 -0.6363 -2.22089 0.233689 -22.3775 0.541251 9.72501 -42.118 36.8443 -29.1401 -0.411383 0.0341141 -4.29917 -4.56867 41.7395 -8.14704 -6.36111e-015 0 -7.95139e-016 0 0 -0 10.3049 -0.502207 -19.8351 61.174 44.4318 21.7345 0.275245 0.0234326 2.45781 -7.86608 10.7257 9.5213 -3.18055e-015 -3.18055e-015 -6.36111e-015 -3.18055e-015 0 -6.36111e-015 -5.05126 7.48559 1.49155 
2.17371 93.6168 -0.676646 1.14376 -5.0848 3.90953 0.250447 0.804504 0.548461 -4.43471 4.9089 1.08765 0.00942673 10.9876 -0.201776 -5.96082 5.11228 -19.3593 -1.67037e-006 -1.14194e-006 5.28054e-007 -2.74178 -10.3103 -2.50794 -0.0565153 28.1722 0.449781 1.99831 -9.21463 1.31034 -2.20695e-032 -1.59028e-015 -7.95137e-016 0.500276 1.62157 1.09186 0.501177 1.60098 1.08731 -0.63519 -2.1776 0.232099 -22.3762 0.501037 9.71137 -42.1449 36.8158 -29.1138 -0.411383 0.0341141 -4.29917 -4.56867 41.7395 -8.14704 3.18055e-015 0 2.38542e-015 -0 0 1.59028e-015 10.299 -0.545216 -19.7997 61.1712 44.4634 21.7376 0.275245 0.0234326 2.45781 -7.87121 10.6852 9.52001 3.18055e-015 0 -0 0 0 -0 -5.04437 7.43333 1.4852 
2.16955 93.6165 -0.67071 1.15833 -5.08476 3.91574 0.250447 0.804504 0.548461 -4.43484 4.9157 1.08766 0.00942673 10.9876 -0.201776 -5.96047 5.11361 -19.3612 -1.67037e-006 -1.14194e-006 5.28054e-007 -2.7413 -10.2995 -2.50785 -0.0565153 28.1722 0.449781 1.99876 -9.23041 1.31088 9.93921e-017 -1.59028e-015 -1.19271e-015 0.500276 1.62157 1.09186 0.501177 1.60098 1.08731 -0.623015 -2.13749 0.230377 -22.3869 0.462848 9.70108 -42.1757 36.7855 -29.0849 -0.411383 0.0341141 -4.29917 -4.5658 41.7544 -8.14895 6.36111e-015 3.18055e-015 1.59028e-015 3.18055e-015 3.18056e-015 -0 10.2884 -0.584527 -19.769 61.1614 44.4962 21.7463 0.275245 0.0234326 2.45781 -7.87037 10.6479 9.51883 -3.18055e-015 -6.36111e-015 -6.36111e-015 -3.18055e-015 -6.36111e-015 -6.36111e-015 -5.04326 7.37857 1.48187 
2.16648 93.6163 -0.6645 1.16957 -5.08546 3.91993 0.250447 0.804504 0.548461 -4.43498 4.92283 1.08767 0.00939507 10.9876 -0.201776 -5.96009 5.11529 -19.3623 -1.67037e-006 -1.14194e-006 5.28054e-007 -2.74242 -10.2931 -2.5078 -0.0565181 28.1725 0.449782 1.99904 -9.24308 1.31087 1.49088e-016 0 -3.97569e-016 0.500276 1.62157 1.09186 0.501177 1.60098 1.08731 -0.617824 -2.09686 0.227552 -22.3891 0.423634 9.69094 -42.1947 36.7675 -29.0655 -0.411383 0.0341141 -4.29917 -4.57157 41.7586 -8.13973 3.18055e-015 0 7.95139e-016 6.36111e-015 3.18056e-015 7.95139e-016 10.2839 -0.623916 -19.747 61.1557 44.5193 21.752 0.275245 0.0234326 2.45781 -7.86868 10.6256 9.51813 7.06225e-031 1.27222e-014 -3.18055e-015 0 1.27222e-014 -0 -5.043 7.3267 1.47905 
2.16623 93.6165 -0.659533 1.17229 -5.0869 3.92305 0.250447 0.804504 0.548461 -4.43502 4.92496 1.08767 0.00951527 10.9876 -0.203071 -5.95971 5.11701 -19.3634 -1.67037e-006 -1.14194e-006 5.28054e-007 -2.74442 -10.2911 -2.50779 -0.0565314 28.174 0.449789 1.99882 -9.2465 1.30902 -4.96961e-017 1.59028e-015 -0 0.500276 1.62157 1.09186 0.501177 1.60098 1.08731 -0.639029 -2.05536 0.219049 -22.3667 0.382265 9.68136 -42.1927 36.7724 -29.061 -0.411383 0.0341141 -4.29917 -4.58279 41.7508 -8.1243 -4.41391e-032 3.18055e-015 7.95139e-016 0 0 -0 10.3045 -0.663444 -19.732 61.1676 44.5185 21.742 0.275244 0.0234325 2.46002 -7.86981 10.628 9.51821 -0 -6.36111e-015 -0 -3.18055e-015 -9.54167e-015 -0 -5.03889 7.2743 1.47466 
2.16633 93.6168 -0.655006 1.17184 -5.08304 3.92613 0.250447 0.804504 0.548461 -4.43502 4.92478 1.08767 0.00970573 10.9876 -0.204734 -5.95941 5.11852 -19.3645 -1.67037e-006 -1.14194e-006 5.28054e-007 -2.74584 -10.2914 -2.50779 -0.0565258 28.1734 0.449786 1.998 -9.24549 1.30408 2.4848e-016 -7.9514e-016 -3.97569e-016 0.500276 1.62157 1.09186 0.501177 1.60098 1.08731 -0.677055 -2.01096 0.208245 -22.3313 0.337314 9.66557 -42.1771 36.7895 -29.0642 -0.411383 0.0341141 -4.29917 -4.5959 41.7309 -8.10793 1.76556e-031 -6.36111e-015 1.59028e-015 1.32417e-031 -9.54167e-015 7.95139e-016 10.3317 -0.705294 -19.7208 61.1954 44.5036 21.7171 0.275243 0.0234325 2.46182 -7.8718 10.6403 9.51859 3.18055e-015 0 -6.36111e-015 -3.53113e-031 -3.18056e-015 -6.36111e-015 -5.02179 7.22094 1.46317 
